<svg width="19" height="20" viewBox="0 0 19 20" fill="none" xmlns="http://www.w3.org/2000/svg">
<path d="M12.828 5.75689L7.17201 11.4139C7.0765 11.5061 7.00032 11.6165 6.94791 11.7385C6.8955 11.8605 6.86792 11.9917 6.86676 12.1245C6.86561 12.2573 6.89091 12.3889 6.94119 12.5118C6.99147 12.6347 7.06572 12.7464 7.15962 12.8403C7.25351 12.9342 7.36516 13.0084 7.48806 13.0587C7.61095 13.109 7.74263 13.1343 7.87541 13.1331C8.00819 13.132 8.13941 13.1044 8.26142 13.052C8.38342 12.9996 8.49377 12.9234 8.58601 12.8279L14.243 7.17189C14.8057 6.60923 15.1218 5.8461 15.1218 5.05039C15.1218 4.25467 14.8057 3.49154 14.243 2.92889C13.6804 2.36623 12.9172 2.05013 12.1215 2.05013C11.3258 2.05013 10.5627 2.36623 10 2.92889L4.34301 8.58589C3.86909 9.04802 3.49164 9.59965 3.23257 10.2088C2.9735 10.8179 2.83796 11.4724 2.83381 12.1344C2.82966 12.7963 2.95699 13.4525 3.20841 14.0648C3.45983 14.6771 3.83033 15.2334 4.29843 15.7015C4.76652 16.1695 5.3229 16.5399 5.93527 16.7913C6.54764 17.0426 7.20382 17.1698 7.86575 17.1656C8.52768 17.1614 9.18217 17.0257 9.79127 16.7666C10.4004 16.5074 10.952 16.1299 11.414 15.6559L17.071 9.99989L18.485 11.4139L12.828 17.0709C12.178 17.7209 11.4063 18.2366 10.5569 18.5884C9.70761 18.9402 8.79731 19.1212 7.87801 19.1212C6.95871 19.1212 6.04841 18.9402 5.19909 18.5884C4.34977 18.2366 3.57806 17.7209 2.92801 17.0709C2.27797 16.4208 1.76233 15.6491 1.41053 14.7998C1.05872 13.9505 0.877655 13.0402 0.877655 12.1209C0.877655 11.2016 1.05872 10.2913 1.41053 9.44197C1.76233 8.59264 2.27797 7.82093 2.92801 7.17089L8.58601 1.51489C9.52902 0.604097 10.792 0.100125 12.103 0.111517C13.414 0.122909 14.6681 0.648754 15.5951 1.57579C16.5221 2.50284 17.048 3.7569 17.0594 5.06788C17.0708 6.37887 16.5668 7.64188 15.656 8.58489L10 14.2439C9.72135 14.5225 9.39054 14.7435 9.02647 14.8942C8.6624 15.045 8.2722 15.1225 7.87816 15.1225C7.48411 15.1224 7.09394 15.0448 6.7299 14.894C6.36587 14.7431 6.03511 14.5221 5.75651 14.2434C5.47791 13.9647 5.25693 13.6339 5.10618 13.2698C4.95542 12.9058 4.87786 12.5156 4.8779 12.1215C4.87795 11.7275 4.95561 11.3373 5.10645 10.9733C5.25728 10.6092 5.47835 10.2785 5.75701 9.99989L11.414 4.34289L12.828 5.75689Z" fill="#09121F"/>
</svg>
