<svg xmlns="http://www.w3.org/2000/svg" width="36" height="36" viewBox="0 0 36 36">
    <g>
        <g transform="translate(-80) translate(80)">
            <circle cx="18" cy="18" r="18" fill="#006a9b"/>
            <g>
                <g>
                    <path fill="#fff" d="M15.707.293a1 1 0 0 0-1.043-.234l-14 5a1 1 0 0 0-.111 1.835l4.586 2.292L11 5l-4.187 5.862 2.292 4.586A1 1 0 0 0 10 16h.061a1 1 0 0 0 .882-.662l5-14a1 1 0 0 0-.236-1.045z" transform="translate(10 10) translate(0 -.001)"/>
                </g>
            </g>
        </g>
    </g>
</svg>
